HIERARCHY
ROOT Hips
{
	OFFSET -0.001795 -0.223333 0.028219
	CHANNELS 6 Xposition Yposition Zposition Zrotation Yrotation Xrotation 
	JOINT LeftUpLeg
	{
		OFFSET 0.069520 -0.091406 -0.006815
		CHANNELS 3 Zrotation Yrotation Xrotation
		JOINT LeftLeg
		{
			OFFSET 0.034277 -0.375199 -0.004496
			CHANNELS 3 Zrotation Yrotation Xrotation
			JOINT LeftFoot
			{
				OFFSET -0.013596 -0.397961 -0.043693
				CHANNELS 3 Zrotation Yrotation Xrotation
				JOINT LeftToe
				{
					OFFSET 0.026358 -0.055791 0.119288
					CHANNELS 3 Zrotation Yrotation Xrotation
					End Site
					{
						OFFSET 0.000000 0.000000 0.000000
					}
				}
			}
		}
	}
	JOINT RightUpLeg
	{
		OFFSET -0.067670 -0.090522 -0.004320
		CHANNELS 3 Zrotation Yrotation Xrotation
		JOINT RightLeg
		{
			OFFSET -0.038290 -0.382569 -0.008850
			CHANNELS 3 Zrotation Yrotation Xrotation
			JOINT RightFoot
			{
				OFFSET 0.015774 -0.398415 -0.042312
				CHANNELS 3 Zrotation Yrotation Xrotation
				JOINT RightToe
				{
					OFFSET -0.025372 -0.048144 0.123348
					CHANNELS 3 Zrotation Yrotation Xrotation
					End Site
					{
						OFFSET 0.000000 0.000000 0.000000
					}
				}
			}
		}
	}
	JOINT Spine
	{
		OFFSET -0.002533 0.108963 -0.026696
		CHANNELS 3 Zrotation Yrotation Xrotation
		JOINT Spine1
		{
			OFFSET 0.005487 0.135180 0.001092
			CHANNELS 3 Zrotation Yrotation Xrotation
			JOINT Spine2
			{
				OFFSET 0.001457 0.052922 0.025425
				CHANNELS 3 Zrotation Yrotation Xrotation
				JOINT Neck
				{
					OFFSET -0.002778 0.213870 -0.042857
					CHANNELS 3 Zrotation Yrotation Xrotation
					JOINT Head
					{
						OFFSET 0.005152 0.064970 0.051349
						CHANNELS 3 Zrotation Yrotation Xrotation
						End Site
						{
							OFFSET 0.000000 0.000000 0.000000
						}
					}
				}
				JOINT LeftShoulder
				{
					OFFSET 0.078845 0.121749 -0.034090
					CHANNELS 3 Zrotation Yrotation Xrotation
					JOINT LeftArm
					{
						OFFSET 0.090977 0.030469 -0.008868
						CHANNELS 3 Zrotation Yrotation Xrotation
						JOINT LeftForeArm
						{
							OFFSET 0.259612 -0.012772 -0.027456
							CHANNELS 3 Zrotation Yrotation Xrotation
							JOINT LeftHand
							{
								OFFSET 0.249234 0.008986 -0.001171
								CHANNELS 3 Zrotation Yrotation Xrotation
								End Site
								{
									OFFSET 0.000000 0.000000 0.000000
								}
							}
						}
					}
				}
				JOINT RightShoulder
				{
					OFFSET -0.081759 0.118833 -0.038615
					CHANNELS 3 Zrotation Yrotation Xrotation
					JOINT RightArm
					{
						OFFSET -0.096012 0.032551 -0.009143
						CHANNELS 3 Zrotation Yrotation Xrotation
						JOINT RightForeArm
						{
							OFFSET -0.253742 -0.013329 -0.021401
							CHANNELS 3 Zrotation Yrotation Xrotation
							JOINT RightHand
							{
								OFFSET -0.255298 0.007772 -0.005559
								CHANNELS 3 Zrotation Yrotation Xrotation
								End Site
								{
									OFFSET 0.000000 0.000000 0.000000
								}
							}
						}
					}
				}
			}
		}
	}
}
MOTION
Frames: 17
Frame Time: 0.050000
0.000000 0.919155 0.000000 -0.867994 11.330131 2.765954 6.091224 -0.191049 3.748657 -3.475247 -0.077323 15.138847 8.326203 15.908487 -1.134035 0.000000 0.000000 0.000000 -3.470699 1.118639 -22.642716 6.749363 -1.678317 16.618441 -7.380779 -17.737288 6.380207 0.000000 0.000000 0.000000 1.282912 -0.596087 9.431810 5.733182 -0.541540 -24.987982 -5.066034 -8.358955 30.652327 1.814720 0.230885 -27.298697 0.000000 0.000000 0.000000 -26.623126 4.273843 -3.888276 -56.478390 -5.406984 -7.108490 -31.768613 -61.018825 24.546949 0.000000 0.000000 0.000000 13.789160 -3.200203 -2.417036 53.276355 0.963720 -7.412817 59.534125 80.354362 57.543724 0.000000 0.000000 0.000000 
-0.009251 0.923174 0.028651 -1.433224 9.676257 4.008679 8.934893 -0.428996 -0.460169 -6.549592 0.548132 22.359680 8.755472 17.740514 3.077764 0.000000 0.000000 0.000000 -1.921492 1.518315 -22.615274 6.686278 -1.658430 18.152330 -7.411922 -18.063889 4.754534 0.000000 0.000000 0.000000 2.054813 -0.521035 7.345956 5.804468 -0.604026 -24.343063 -4.518135 -7.841453 29.847467 -0.130385 1.193109 -25.392089 0.000000 0.000000 0.000000 -27.087420 4.904671 -4.209020 -56.799994 -6.263603 -6.711059 -37.342507 -62.654314 29.212723 0.000000 0.000000 0.000000 12.103280 -3.923707 -2.698052 52.946302 0.569952 -7.472776 81.556271 78.935894 76.492968 0.000000 0.000000 0.000000 
-0.016970 0.928580 0.055015 -1.438118 7.626550 3.436413 10.934286 -0.430787 -4.948787 -10.367967 1.991344 31.483583 9.837960 20.194390 8.269444 0.000000 0.000000 0.000000 -0.800516 1.681622 -20.393101 5.804363 -1.294461 18.615284 -6.611240 -16.477880 3.769494 0.000000 0.000000 0.000000 2.578442 -0.642207 8.503466 5.484746 -0.464219 -26.041565 -4.601288 -6.861017 30.658672 -1.754924 2.095384 -24.855580 0.000000 0.000000 0.000000 -29.467112 6.133095 -5.165559 -54.674708 -8.256733 -5.782843 -39.952180 -67.208355 33.840863 0.000000 0.000000 0.000000 10.891983 -3.540590 -2.423648 54.118200 -0.326892 -8.087472 92.454511 77.016677 85.101824 0.000000 0.000000 0.000000 
-0.022438 0.932187 0.079739 -1.230136 7.783983 2.570967 11.486299 -0.399982 -9.524161 -12.784625 3.118986 38.155192 11.576217 22.990163 7.875462 0.000000 0.000000 0.000000 -0.477480 1.461606 -16.640018 5.665182 -1.174385 16.448768 -6.352747 -15.934739 3.403170 0.000000 0.000000 0.000000 2.144273 -0.611419 8.760489 6.301908 -0.640194 -26.311069 -4.738515 -6.468720 31.576397 -0.356298 1.293501 -24.454412 0.000000 0.000000 0.000000 -30.700491 6.215800 -5.566346 -54.587775 -9.306910 -5.334083 -49.810803 -70.381152 43.465819 0.000000 0.000000 0.000000 10.482007 -3.438296 -2.248601 52.593768 0.077317 -7.772410 117.737580 75.500356 110.600965 0.000000 0.000000 0.000000 
-0.025998 0.936011 0.103328 -0.940594 6.557419 1.741525 10.523286 -0.414737 -13.551934 -14.273307 4.164359 40.780143 13.474894 26.171518 5.586377 0.000000 0.000000 0.000000 0.073834 1.240745 -12.895095 4.778482 -0.809575 14.287757 -5.660672 -14.465190 3.866309 0.000000 0.000000 0.000000 1.913794 -0.678897 10.252935 6.420152 -0.704751 -25.998377 -3.690052 -4.875055 30.883594 -0.611981 1.588329 -23.799469 0.000000 0.000000 0.000000 -30.930564 4.073354 -4.452540 -53.484827 -11.342033 -4.262532 -51.634373 -73.969680 47.180460 0.000000 0.000000 0.000000 10.434891 -3.681337 -2.246620 52.315049 -0.641803 -7.988703 132.143321 73.219558 125.738184 0.000000 0.000000 0.000000 
-0.027637 0.939117 0.126190 -0.696744 6.025467 1.297359 9.286956 -0.577815 -17.306595 -13.362318 3.774424 39.382385 13.970123 26.972904 6.115739 0.000000 0.000000 0.000000 0.564583 1.014780 -9.947674 3.829515 -0.532353 13.141780 -5.355277 -13.811515 3.664524 0.000000 0.000000 0.000000 1.592049 -0.668965 10.736573 6.774225 -0.828621 -25.559999 -3.470430 -4.452411 30.514012 -0.668678 1.641721 -23.613154 0.000000 0.000000 0.000000 -30.422684 3.623701 -4.111134 -53.566303 -13.260452 -3.370768 -49.084157 -76.234220 46.681573 0.000000 0.000000 0.000000 10.227891 -3.233685 -2.006914 51.921730 -0.401326 -7.815632 146.128754 71.894138 142.477609 0.000000 0.000000 0.000000 
-0.027336 0.941109 0.148576 -0.276340 4.946608 1.182348 7.939819 -0.754178 -19.019105 -11.599521 2.931885 33.812911 13.717641 26.609727 5.815954 0.000000 0.000000 0.000000 0.521794 0.831432 -8.088178 3.620369 -0.441355 12.731239 -4.633380 -12.144632 3.050584 0.000000 0.000000 0.000000 1.611964 -0.691486 11.247843 6.338393 -0.775895 -25.037396 -2.810629 -3.812470 30.462641 -1.027577 1.894190 -24.249394 0.000000 0.000000 0.000000 -29.410349 2.684192 -3.296597 -52.666311 -15.802409 -2.276904 -34.788743 -77.735739 35.514398 0.000000 0.000000 0.000000 10.514798 -3.788598 -2.296298 50.668961 -0.344858 -7.640963 157.246531 68.691383 155.706739 0.000000 0.000000 0.000000 
-0.025517 0.941705 0.170719 0.021970 3.481481 1.286938 7.043788 -0.898860 -20.925519 -10.056409 2.233027 26.430330 13.538584 26.160605 7.763763 0.000000 0.000000 0.000000 0.432174 0.672863 -6.555181 3.231656 -0.304499 12.437158 -4.299463 -11.272020 2.207498 0.000000 0.000000 0.000000 1.429807 -0.673283 11.550175 6.742340 -0.961842 -24.078701 -2.719376 -2.837450 30.017649 -1.477832 2.235448 -25.213309 0.000000 0.000000 0.000000 -29.148934 1.895839 -2.759052 -50.958489 -17.057860 -1.706280 -17.390875 -76.316620 20.342870 0.000000 0.000000 0.000000 10.801549 -2.975947 -1.945124 49.124316 0.613787 -7.012590 169.950526 65.608412 173.613888 0.000000 0.000000 0.000000 
-0.022753 0.942638 0.193059 0.062078 2.326559 1.735720 6.977680 -0.883570 -21.550210 -9.222681 1.719644 17.701026 12.281397 24.054810 9.990301 0.000000 0.000000 0.000000 0.443239 0.506273 -4.940175 2.808894 -0.183836 11.389441 -3.824778 -10.040181 1.591695 0.000000 0.000000 0.000000 1.574547 -0.694923 11.789493 6.994827 -1.123901 -23.028589 -2.503550 -2.243975 29.069505 -2.059043 2.592103 -25.727346 0.000000 0.000000 0.000000 -29.224131 1.690598 -2.616580 -49.496159 -16.939618 -1.705410 -5.204342 -70.667030 9.465978 0.000000 0.000000 0.000000 10.717837 -2.140957 -1.580994 47.591946 1.711820 -6.318611 -177.824955 62.754520 -166.880889 0.000000 0.000000 0.000000 
-0.019342 0.941906 0.216135 -0.397492 0.319065 2.768076 7.523557 -0.714546 -22.145303 -8.032032 1.179288 8.462733 10.754389 21.571400 12.640884 0.000000 0.000000 0.000000 0.856500 0.398515 -3.922836 2.564514 -0.099020 10.385516 -3.425544 -8.777244 0.448721 0.000000 0.000000 0.000000 1.864896 -0.714464 11.735120 6.926019 -1.122289 -23.100496 -1.864116 -0.614923 29.112008 -2.588330 3.018888 -26.966398 0.000000 0.000000 0.000000 -28.633338 1.126598 -2.333749 -48.082996 -16.352037 -1.915683 -2.737902 -62.564560 6.330932 0.000000 0.000000 0.000000 10.887060 -2.639932 -1.775714 46.234461 3.423473 -5.558650 -170.458686 57.877377 -152.111880 0.000000 0.000000 0.000000 
-0.015110 0.940521 0.240885 -0.786120 -0.974631 3.175919 8.223588 -0.524087 -22.499425 -6.921452 0.831584 2.255518 9.192622 19.179916 15.573670 0.000000 0.000000 0.000000 1.184752 0.189170 -2.067896 2.482908 -0.081667 9.086289 -3.476687 -8.718143 -0.068314 0.000000 0.000000 0.000000 1.715875 -0.745040 12.795894 6.475201 -1.048292 -22.873348 -1.449840 -0.471125 28.743717 -1.743282 2.464237 -28.022300 0.000000 0.000000 0.000000 -28.068156 0.565608 -1.660023 -47.126444 -16.069172 -2.069019 -0.108378 -53.477374 3.879353 0.000000 0.000000 0.000000 10.272433 -2.035736 -1.537811 45.404559 5.680664 -4.634917 -164.464912 52.134930 -137.665957 0.000000 0.000000 0.000000 
-0.009209 0.937840 0.267825 -0.733989 -2.805691 3.197289 7.915875 -0.470255 -22.752139 -5.501655 0.647953 0.839141 7.786409 17.052625 18.103383 0.000000 0.000000 0.000000 0.846427 -0.003080 -0.270229 2.220763 -0.010752 8.807039 -3.355582 -7.937424 -1.256496 0.000000 0.000000 0.000000 0.575475 -0.589128 13.297597 6.202886 -1.030514 -22.610927 -1.217154 0.563476 29.070493 -1.750428 2.517974 -29.697627 0.000000 0.000000 0.000000 -26.721510 -0.043869 -1.103975 -46.849512 -16.786156 -1.829681 -1.393281 -43.741112 3.446715 0.000000 0.000000 0.000000 10.276779 -1.430046 -1.266578 43.116094 9.115117 -3.354235 -159.745999 46.589353 -123.079456 0.000000 0.000000 0.000000 
-0.000957 0.934283 0.296813 -1.305942 -4.510408 4.242026 8.050138 -0.347550 -23.462632 -5.076379 0.644491 2.857594 7.879052 17.026369 20.130645 0.000000 0.000000 0.000000 0.868989 -0.012588 -0.248985 1.902919 0.121603 10.296240 -3.507955 -7.471381 -3.182030 0.000000 0.000000 0.000000 -0.077815 -0.455583 12.560082 6.215140 -1.061715 -22.444942 -1.329365 1.454007 29.540950 -0.734113 1.968124 -30.263223 0.000000 0.000000 0.000000 -25.377136 -0.952664 -0.335262 -47.336808 -16.386691 -2.054255 -1.668869 -37.909331 2.985247 0.000000 0.000000 0.000000 9.852750 -0.137309 -0.653340 40.671613 11.852131 -2.449341 -156.594662 43.098150 -112.528933 0.000000 0.000000 0.000000 
0.009818 0.932967 0.327099 -0.973217 -5.276174 4.820047 7.097872 -0.496894 -23.264369 -5.257906 0.725360 5.062347 8.730580 18.068385 20.494271 0.000000 0.000000 0.000000 -0.384538 0.101792 -0.943991 1.325251 0.389086 13.705280 -3.734165 -7.755671 -3.801078 0.000000 0.000000 0.000000 -1.535418 -0.241147 12.299582 6.369757 -1.145968 -21.982845 -1.979167 1.795838 29.370467 -1.291387 2.263377 -30.429216 0.000000 0.000000 0.000000 -25.426258 -1.683179 0.150489 -46.621823 -16.765956 -1.911070 -1.197842 -34.627310 2.481772 0.000000 0.000000 0.000000 9.174068 0.823379 -0.191213 37.932448 13.121482 -2.006360 -153.790782 41.587087 -105.285397 0.000000 0.000000 0.000000 
0.022328 0.933595 0.356591 -0.735738 -5.677856 5.434665 6.567554 -0.584881 -22.884995 -5.747812 0.859709 6.705553 9.378440 18.890547 19.622555 0.000000 0.000000 0.000000 -1.220687 0.338574 -3.264223 1.031349 0.734917 18.885231 -4.154730 -9.447324 -2.316698 0.000000 0.000000 0.000000 -2.268257 -0.130029 12.332441 5.517450 -0.849164 -22.978686 -2.404271 1.239754 30.135002 -1.367269 2.167671 -30.700856 0.000000 0.000000 0.000000 -25.025493 -2.712141 1.148092 -46.598695 -18.651474 -1.359478 -1.674710 -32.958177 2.527916 0.000000 0.000000 0.000000 8.889185 1.705915 0.129419 34.017741 13.461480 -1.874851 -150.768320 41.892964 -101.395849 0.000000 0.000000 0.000000 
0.035101 0.936305 0.383581 0.195965 -5.223793 5.720860 5.377497 -0.840211 -22.368423 -6.344020 1.004344 8.056998 9.300301 18.866540 18.526767 0.000000 0.000000 0.000000 -3.234735 0.615985 -6.492681 1.369247 1.001279 25.846812 -4.135329 -10.485753 0.677069 0.000000 0.000000 0.000000 -3.516040 0.047045 12.674376 4.699328 -0.676808 -22.474538 -2.865500 0.365707 28.928593 -2.316227 2.570768 -30.052718 0.000000 0.000000 0.000000 -25.157450 -4.236794 2.234482 -46.371229 -21.375015 -0.251672 -2.222797 -31.876320 2.563056 0.000000 0.000000 0.000000 7.742120 2.425712 0.429991 31.751561 12.642628 -1.875852 -149.019857 43.912692 -102.347095 0.000000 0.000000 0.000000 
0.046329 0.939827 0.407919 0.398919 -3.679120 5.400051 4.041559 -1.076108 -20.221251 -6.242475 0.941829 7.961085 8.928469 18.544910 17.263939 0.000000 0.000000 0.000000 -4.313044 0.801877 -9.668222 2.493963 0.852954 34.223605 -4.694372 -12.515664 3.369623 0.000000 0.000000 0.000000 -4.019086 0.095541 13.947067 4.278277 -0.439607 -24.042927 -3.480288 -1.246949 30.537889 -2.947327 2.794856 -31.531155 0.000000 0.000000 0.000000 -25.564270 -5.960177 3.678528 -46.428457 -25.635949 1.154865 -0.635682 -31.175220 2.114869 0.000000 0.000000 0.000000 6.607675 3.236975 0.793610 28.784385 13.004818 -1.822694 -146.164448 45.560538 -100.952164 0.000000 0.000000 0.000000 
